#!OML:ASF F:\VICON\USERDATA\INSTALL\rory3\rory3.ASF
:FULLY-SPECIFIED
:DEGREES
31
root -0.1599804399452578 18.031183650985668 25.23666551883504 -3.4278689182766 0.30965530052722645 -3.627560293851385
lfemur -15.294353033545086 1.1283953291462554 -12.814317225560078
ltibia 73.96940363862012
lfoot 6.251277915814959 -12.957583725199317
ltoes -9.430317450330275
rfemur -11.49241052391286 3.1180620905537118 34.855576269317524
rtibia 53.09364198399959
rfoot -9.937470837172073 4.184088382463273
rtoes 18.49161174993209
lowerback nan -0.02001231431068362 3.350281882982941
upperback 0.27911821634095957 0.9437124241492248 2.541832506221982
thorax -4.914569014278576 0.5204135390565137 -0.05084110203960113
lowerneck -15.071983794139713 -3.3279367303086564 -1.4037380268634156
upperneck 20.928277135572475 -4.599321921055629 1.4464331224572988
head 9.101716491439051 -2.0409858616676546 0.3009706880974656
lclavicle -1.4479454672623364e-14 -2.740782557234245e-14
lhumerus -36.01423345011894 7.032833851947413 81.23228750638987
lradius 22.981880403922396
lwrist 5.73566988036205
lhand -29.8930379977555 16.612052472885694
lfingers nan
lthumb -2.9587374976992713 45.87635050581528
rclavicle -1.4933904446836824e-14 -2.6824194475408374e-14
rhumerus -32.37740658401808 -25.83743183577274 -75.15139158132568
rradius 19.705862940838784
rwrist 12.896595389371559
rhand -15.125672250882975 nan
rfingers nan
rthumb 10.853624492280598 -8.459528099659869
32
root -0.20993332557959699 18.0383234346894 25.924676865379567 -3.482231493053262 -0.2651517341801475 -4.247566730253576
lfemur -20.633419504141223 2.5534996453707595 -11.796205996495516
ltibia 75.82059478925976
lfoot 2.9871435211387523 -10.323710786784236
ltoes -6.422659246543098
rfemur -8.856493839170113 3.44630390927265 36.295195480571294
rtibia 51.94374867450439
rfoot -11.219036405971353 3.955299887731142
rtoes 20.47910121060559
lowerback nan 0.4845813555354104 3.9899593458793055
upperback 0.5126900349524134 1.5239040124225776 2.50716468787767
thorax -4.393693476376509 0.836317195146653 -0.5865527350784447
lowerneck -15.653622971922017 -3.350110426396645 -1.3969957403696842
upperneck 21.24011813637293 -4.684920570188869 1.416093234889924
head 9.308508599325885 -2.0606158661950107 0.2760255814125574
lclavicle -2.5576507035402886e-14 -1.9045698596633725e-14
lhumerus -36.82357860114911 8.160902413990684 81.18716308442534
lradius 21.807898089761835
lwrist 5.251435054792157
lhand -26.849003757747717 17.08322213059115
lfingers nan
lthumb 0.004054550168595128 46.46419081682993
rclavicle -2.561393639470899e-14 -1.8507706778379097e-14
rhumerus -29.42762665695999 -23.66728219352003 -77.16566513099842
rradius 19.46426932786887
rwrist 14.17991463038285
rhand -17.147019648124036 nan
rfingers nan
rthumb 8.925271397235656 -9.04160795281763
33
root -0.23410401690015759 18.024043186391083 26.661621984384837 -3.5258142124783944 -1.2462287250637392 -4.760575128947064
lfemur -24.9030914121919 3.775151315671653 -11.547912052526248
ltibia 75.02577796057896
lfoot -0.9731022986573326 -7.34784524633462
ltoes -7.876799733244111
rfemur -6.491652215605072 3.5555287175695844 37.0540706242696
rtibia 51.4184952129599
rfoot -12.773781900721959 4.1583066905317185
rtoes 22.390594685409724
lowerback nan 1.0508264487132468 4.481415130249149
upperback 0.28656138503895384 2.2570636791086667 2.2374334857041775
thorax -4.977089085110022 1.229640020208536 -1.1531379033536453
lowerneck -15.23869028977708 -3.4500976706547397 -1.7838560914510826
upperneck 21.2451922911124 -4.9190591225581315 1.7549129695264012
head 9.275231715929287 -2.1337317880427715 0.4812332411672259
lclavicle -1.1831711647468092e-14 -2.761043341438941e-14
lhumerus -38.361289209283605 8.38934058968506 81.07025075706812
lradius 20.430031672781162
lwrist 5.87538342336479
lhand -26.72266872827315 15.921085043809668
lfingers nan
lthumb 0.1591951262504503 45.3399077620402
rclavicle -1.1404327175732546e-14 -2.6709773598373716e-14
rhumerus -27.527039460422618 -19.254220846565726 -79.62330795762574
rradius 20.548896905566266
rwrist 10.584683324942489
rhand -17.176739559748 nan
rfingers nan
rthumb 8.879558314480375 -8.926616684694757
34
root -0.2562803108969125 17.980844048733253 28.037819014687614 -3.3471170733492475 -1.6497672640254788 -5.394834590576617
lfemur -28.551055755281006 4.109584107127754 -11.00809375151324
ltibia 72.614119259358
lfoot -4.508953842877386 -4.699420902963932
ltoes -10.681001643160423
rfemur -4.925066504744274 3.0063989510589315 37.924102301060685
rtibia 51.89955901286768
rfoot -14.819655809835794 4.501854856007773
rtoes 20.319190837338496
lowerback nan 1.3524122939589125 5.3867880327714435
upperback 0.3538612890879955 2.723697858642028 2.1146230591820876
thorax -4.790062139377129 1.4574101992336703 -1.905568019313775
lowerneck -15.295660309266308 -3.4447844531885425 -1.367735809242201
upperneck 20.919655486740925 -4.988325851478741 1.670065549117258
head 9.131641626615417 -2.154994153945858 0.40819913128406826
lclavicle 2.613246777288175e-15 -3.8493608502563326e-17
lhumerus -39.463258101814034 8.428177746805847 80.94857150591994
lradius 19.43709776066886
lwrist 6.268375720355083
lhand -26.24177863353915 16.44288584591546
lfingers nan
lthumb 0.5432356728292174 45.79547311707066
rclavicle 2.7111649976535876e-15 8.262971748342437e-16
rhumerus -25.39739151406958 -14.54338439906402 -82.01700512884132
rradius 22.956239191639312
rwrist 7.282916121145675
rhand -16.96883366930897 nan
rfingers nan
rthumb 9.02487341343705 -15.12175022511617
